# xmcd
#
# Track frame offsets:
#	150
#	15252
#	28350
#	41260
#	60577
#	71475
#	85275
#	97575
#	110652
#	123040
#	133890
#
# Disc length: 1940 seconds
#
# Revision: 0
# Processed by: cddbd v1.5.1PL0 Copyright (c) Steve Scherf et al.
# Submitted via: dBpowerAMP V4.0
#
DISCID=8507920b
DTITLE=Israel Tolbert - Popper Stopper
DYEAR=1970
DGENRE=Blues
TTITLE0=Big Leg Woman (With A Short Short Mini Skirt)
TTITLE1=Lost Love
TTITLE2=You'll Lose A Good Thing
TTITLE3=Kentucky Waltz
TTITLE4=Happy Birthday Misses
TTITLE5=Saving My Love For You
TTITLE6=Shake Your Big Hips
TTITLE7=Darling, I Love You
TTITLE8=Driving Wheels
TTITLE9=Bitter Tears
TTITLE10=I'm In Love
EXTD=
EXTT0=
EXTT1=
EXTT2=
EXTT3=
EXTT4=
EXTT5=
EXTT6=
EXTT7=
EXTT8=
EXTT9=
EXTT10=
PLAYORDER=
